<mxfile host="app.diagrams.net" modified="2024-05-22T16:54:32.688Z" agent="Mozilla/5.0 (Windows NT 10.0; Win64; x64) AppleWebKit/537.36 (KHTML, like Gecko) Chrome/124.0.0.0 Safari/537.36" etag="mcIEndhpy49j4aNFovRA" version="24.4.6" type="github">
  <diagram name="PÃ¡gina-1" id="qtJmnwFwFeLOcwQkmZnU">
    <mxGraphModel dx="2234" dy="803" grid="0" gridSize="10" guides="1" tooltips="1" connect="1" arrows="1" fold="1" page="0" pageScale="1" pageWidth="827" pageHeight="1169" math="0" shadow="0">
      <root>
        <mxCell id="0" />
        <mxCell id="1" parent="0" />
        <mxCell id="DoBYynUEnmm3b60OkJsO-1" value="&lt;p style=&quot;margin:0px;margin-top:4px;text-align:center;&quot;&gt;&amp;lt;&amp;lt;requirement&amp;gt;&amp;gt;&lt;br&gt;&lt;b&gt;Review Doctor&lt;/b&gt;&lt;/p&gt;&lt;hr&gt;&lt;p&gt;&lt;/p&gt;&lt;p style=&quot;margin:0px;margin-left:8px;text-align:left;&quot;&gt;text=&quot;The system should enable to review doctor&quot;&lt;br&gt;Id=&quot;13&quot;&lt;/p&gt;" style="shape=rect;overflow=fill;html=1;whiteSpace=wrap;align=center;" parent="1" vertex="1">
          <mxGeometry x="359" y="40" width="200" height="100" as="geometry" />
        </mxCell>
        <mxCell id="DoBYynUEnmm3b60OkJsO-2" value="&lt;p style=&quot;margin:0px;margin-top:4px;text-align:center;&quot;&gt;&amp;lt;&amp;lt;requirement&amp;gt;&amp;gt;&lt;br&gt;&lt;b&gt;Review form produced&lt;/b&gt;&lt;/p&gt;&lt;hr&gt;&lt;p&gt;&lt;/p&gt;&lt;p style=&quot;margin:0px;margin-left:8px;text-align:left;&quot;&gt;text=&quot;The system should review the form produced&quot;&lt;br&gt;Id=&quot;13.1&quot;&lt;/p&gt;" style="shape=rect;overflow=fill;html=1;whiteSpace=wrap;align=center;" parent="1" vertex="1">
          <mxGeometry x="-437" y="190" width="200" height="100" as="geometry" />
        </mxCell>
        <mxCell id="DoBYynUEnmm3b60OkJsO-3" value="&lt;p style=&quot;margin:0px;margin-top:4px;text-align:center;&quot;&gt;&amp;lt;&amp;lt;requirement&amp;gt;&amp;gt;&lt;br&gt;&lt;b&gt;Form filled&lt;/b&gt;&lt;/p&gt;&lt;hr&gt;&lt;p&gt;&lt;/p&gt;&lt;p style=&quot;margin:0px;margin-left:8px;text-align:left;&quot;&gt;text=&quot;The system should get the information filled&quot;&lt;br&gt;Id=&quot;13.2&quot;&lt;/p&gt;" style="shape=rect;overflow=fill;html=1;whiteSpace=wrap;align=center;" parent="1" vertex="1">
          <mxGeometry x="359" y="190" width="200" height="100" as="geometry" />
        </mxCell>
        <mxCell id="DoBYynUEnmm3b60OkJsO-7" value="&lt;p style=&quot;margin:0px;margin-top:4px;text-align:center;&quot;&gt;&amp;lt;&amp;lt;requirement&amp;gt;&amp;gt;&lt;br&gt;&lt;b&gt;Review stored in db&lt;/b&gt;&lt;/p&gt;&lt;hr&gt;&lt;p&gt;&lt;/p&gt;&lt;p style=&quot;margin:0px;margin-left:8px;text-align:left;&quot;&gt;text=&quot;The system should store the review in the database&quot;&lt;br&gt;Id=&quot;13.3&quot;&lt;/p&gt;" style="shape=rect;overflow=fill;html=1;whiteSpace=wrap;align=center;" parent="1" vertex="1">
          <mxGeometry x="627" y="190" width="200" height="100" as="geometry" />
        </mxCell>
        <mxCell id="DoBYynUEnmm3b60OkJsO-8" value="&lt;p style=&quot;margin:0px;margin-top:4px;text-align:center;&quot;&gt;&amp;lt;&amp;lt;requirement&amp;gt;&amp;gt;&lt;br&gt;&lt;b&gt;Analytics computed&lt;/b&gt;&lt;/p&gt;&lt;hr&gt;&lt;p&gt;&lt;/p&gt;&lt;p style=&quot;margin:0px;margin-left:8px;text-align:left;&quot;&gt;text=&quot;The system should compute the analytics using the newly stored review&quot;&lt;br&gt;Id=&quot;13.4&quot;&lt;/p&gt;" style="shape=rect;overflow=fill;html=1;whiteSpace=wrap;align=center;" parent="1" vertex="1">
          <mxGeometry x="860" y="190" width="220" height="100" as="geometry" />
        </mxCell>
        <mxCell id="DoBYynUEnmm3b60OkJsO-10" value="&amp;lt;&amp;lt;actor&amp;gt;&amp;gt;&lt;br&gt;&lt;br&gt;&lt;b&gt;Patient&lt;/b&gt;" style="html=1;align=center;verticalAlign=middle;dashed=0;whiteSpace=wrap;" parent="1" vertex="1">
          <mxGeometry x="419" y="333" width="80" height="51" as="geometry" />
        </mxCell>
        <mxCell id="DoBYynUEnmm3b60OkJsO-11" value="&amp;lt;&amp;lt;block&amp;gt;&amp;gt;&lt;br&gt;&lt;br&gt;&lt;b&gt;Reviews Controller&lt;/b&gt;" style="html=1;align=center;verticalAlign=middle;dashed=0;whiteSpace=wrap;" parent="1" vertex="1">
          <mxGeometry x="-547" y="340" width="160" height="70" as="geometry" />
        </mxCell>
        <mxCell id="DoBYynUEnmm3b60OkJsO-12" value="&amp;lt;&amp;lt;block&amp;gt;&amp;gt;&lt;br&gt;&lt;br&gt;&lt;b&gt;Reviews Controller&lt;/b&gt;" style="html=1;align=center;verticalAlign=middle;dashed=0;whiteSpace=wrap;" parent="1" vertex="1">
          <mxGeometry x="672" y="329" width="128" height="50" as="geometry" />
        </mxCell>
        <mxCell id="DoBYynUEnmm3b60OkJsO-13" value="&amp;lt;&amp;lt;block&amp;gt;&amp;gt;&lt;br&gt;&lt;br&gt;&lt;b&gt;Analytics Controller&lt;/b&gt;" style="html=1;align=center;verticalAlign=middle;dashed=0;whiteSpace=wrap;" parent="1" vertex="1">
          <mxGeometry x="840" y="357.5" width="120" height="45" as="geometry" />
        </mxCell>
        <mxCell id="DoBYynUEnmm3b60OkJsO-15" value="" style="rounded=0;html=1;labelBackgroundColor=none;endArrow=none;edgeStyle=elbowEdgeStyle;elbow=vertical;startArrow=sysMLPackCont;startSize=12;" parent="1" source="DoBYynUEnmm3b60OkJsO-1" target="DoBYynUEnmm3b60OkJsO-2" edge="1">
          <mxGeometry relative="1" as="geometry">
            <mxPoint x="240" y="120" as="sourcePoint" />
            <mxPoint x="150" y="180" as="targetPoint" />
          </mxGeometry>
        </mxCell>
        <mxCell id="DoBYynUEnmm3b60OkJsO-16" value="" style="rounded=0;html=1;labelBackgroundColor=none;endArrow=none;edgeStyle=elbowEdgeStyle;elbow=vertical;startArrow=sysMLPackCont;startSize=12;" parent="1" source="DoBYynUEnmm3b60OkJsO-1" target="DoBYynUEnmm3b60OkJsO-3" edge="1">
          <mxGeometry relative="1" as="geometry">
            <mxPoint x="700" y="120" as="sourcePoint" />
            <mxPoint x="610" y="180" as="targetPoint" />
          </mxGeometry>
        </mxCell>
        <mxCell id="DoBYynUEnmm3b60OkJsO-17" value="" style="rounded=0;html=1;labelBackgroundColor=none;endArrow=none;edgeStyle=elbowEdgeStyle;elbow=vertical;startArrow=sysMLPackCont;startSize=12;" parent="1" source="DoBYynUEnmm3b60OkJsO-1" target="DoBYynUEnmm3b60OkJsO-7" edge="1">
          <mxGeometry relative="1" as="geometry">
            <mxPoint x="850" y="60" as="sourcePoint" />
            <mxPoint x="760" y="120" as="targetPoint" />
          </mxGeometry>
        </mxCell>
        <mxCell id="DoBYynUEnmm3b60OkJsO-18" value="" style="rounded=0;html=1;labelBackgroundColor=none;endArrow=none;edgeStyle=elbowEdgeStyle;elbow=vertical;startArrow=sysMLPackCont;startSize=12;" parent="1" source="DoBYynUEnmm3b60OkJsO-1" target="DoBYynUEnmm3b60OkJsO-8" edge="1">
          <mxGeometry relative="1" as="geometry">
            <mxPoint x="910" y="90" as="sourcePoint" />
            <mxPoint x="820" y="150" as="targetPoint" />
          </mxGeometry>
        </mxCell>
        <mxCell id="DoBYynUEnmm3b60OkJsO-23" value="Satisfy" style="html=1;verticalAlign=bottom;endArrow=open;dashed=1;endSize=8;curved=0;rounded=0;" parent="1" source="DoBYynUEnmm3b60OkJsO-12" target="DoBYynUEnmm3b60OkJsO-7" edge="1">
          <mxGeometry x="-0.3212" y="-21" relative="1" as="geometry">
            <mxPoint x="800" y="429" as="sourcePoint" />
            <mxPoint x="720" y="429" as="targetPoint" />
            <mxPoint as="offset" />
          </mxGeometry>
        </mxCell>
        <mxCell id="DoBYynUEnmm3b60OkJsO-24" value="Satisfy" style="html=1;verticalAlign=bottom;endArrow=open;dashed=1;endSize=8;curved=0;rounded=0;" parent="1" source="DoBYynUEnmm3b60OkJsO-11" target="DoBYynUEnmm3b60OkJsO-2" edge="1">
          <mxGeometry x="-0.3212" y="-21" relative="1" as="geometry">
            <mxPoint x="-377" y="469" as="sourcePoint" />
            <mxPoint x="-267" y="408" as="targetPoint" />
            <mxPoint as="offset" />
          </mxGeometry>
        </mxCell>
        <mxCell id="DoBYynUEnmm3b60OkJsO-25" value="Satisfy" style="html=1;verticalAlign=bottom;endArrow=open;dashed=1;endSize=8;curved=0;rounded=0;" parent="1" source="DoBYynUEnmm3b60OkJsO-10" target="DoBYynUEnmm3b60OkJsO-3" edge="1">
          <mxGeometry x="-0.3212" y="-21" relative="1" as="geometry">
            <mxPoint x="50" y="339" as="sourcePoint" />
            <mxPoint x="50" y="300" as="targetPoint" />
            <mxPoint as="offset" />
          </mxGeometry>
        </mxCell>
        <mxCell id="DoBYynUEnmm3b60OkJsO-28" value="Compute Analytics" style="ellipse;whiteSpace=wrap;html=1;" parent="1" vertex="1">
          <mxGeometry x="1030" y="360" width="130" height="40" as="geometry" />
        </mxCell>
        <mxCell id="DoBYynUEnmm3b60OkJsO-32" value="Satisfy" style="html=1;verticalAlign=bottom;endArrow=open;dashed=1;endSize=8;curved=0;rounded=0;" parent="1" source="DoBYynUEnmm3b60OkJsO-13" target="DoBYynUEnmm3b60OkJsO-8" edge="1">
          <mxGeometry x="-0.3212" y="-21" relative="1" as="geometry">
            <mxPoint x="560" y="495" as="sourcePoint" />
            <mxPoint x="560" y="440" as="targetPoint" />
            <mxPoint as="offset" />
          </mxGeometry>
        </mxCell>
        <mxCell id="DoBYynUEnmm3b60OkJsO-33" value="Refine" style="html=1;verticalAlign=bottom;endArrow=open;dashed=1;endSize=8;curved=0;rounded=0;" parent="1" source="DoBYynUEnmm3b60OkJsO-28" target="DoBYynUEnmm3b60OkJsO-8" edge="1">
          <mxGeometry x="-0.3212" y="-21" relative="1" as="geometry">
            <mxPoint x="770" y="527" as="sourcePoint" />
            <mxPoint x="927" y="410" as="targetPoint" />
            <mxPoint as="offset" />
          </mxGeometry>
        </mxCell>
        <mxCell id="DoBYynUEnmm3b60OkJsO-34" value="Performs" style="html=1;verticalAlign=bottom;endArrow=open;dashed=1;endSize=8;curved=0;rounded=0;" parent="1" source="DoBYynUEnmm3b60OkJsO-13" target="DoBYynUEnmm3b60OkJsO-28" edge="1">
          <mxGeometry x="0.1667" y="-30" relative="1" as="geometry">
            <mxPoint x="814.5" y="585" as="sourcePoint" />
            <mxPoint x="814.5" y="645" as="targetPoint" />
            <mxPoint as="offset" />
          </mxGeometry>
        </mxCell>
        <mxCell id="DoBYynUEnmm3b60OkJsO-36" value="&lt;p style=&quot;margin:0px;margin-top:4px;text-align:center;&quot;&gt;&amp;lt;&amp;lt;requirement&amp;gt;&amp;gt;&lt;br&gt;&lt;b style=&quot;font-size: 11px; background-color: rgb(255, 255, 255);&quot;&gt;Use Arial or other readable font&lt;/b&gt;&lt;br&gt;&lt;/p&gt;&lt;hr&gt;&lt;p&gt;&lt;/p&gt;&lt;p style=&quot;margin:0px;margin-left:8px;text-align:left;&quot;&gt;text=&quot;The system should register a new patient&quot;&lt;br&gt;Id=&quot;13.1.1&quot;&lt;/p&gt;" style="shape=rect;overflow=fill;html=1;whiteSpace=wrap;align=center;" parent="1" vertex="1">
          <mxGeometry x="-180" y="190" width="200" height="100" as="geometry" />
        </mxCell>
        <mxCell id="DoBYynUEnmm3b60OkJsO-37" value="&lt;p style=&quot;margin:0px;margin-top:4px;text-align:center;&quot;&gt;&amp;lt;&amp;lt;requirement&amp;gt;&amp;gt;&lt;br&gt;&lt;b style=&quot;font-size: 11px; background-color: rgb(255, 255, 255);&quot;&gt;Font size of at least 13pt&lt;/b&gt;&lt;br&gt;&lt;/p&gt;&lt;hr&gt;&lt;p&gt;&lt;/p&gt;&lt;p style=&quot;margin:0px;margin-left:8px;text-align:left;&quot;&gt;text=&quot;The system should register a new patient&quot;&lt;br&gt;Id=&quot;13.1.2&quot;&lt;/p&gt;" style="shape=rect;overflow=fill;html=1;whiteSpace=wrap;align=center;" parent="1" vertex="1">
          <mxGeometry x="75" y="190" width="200" height="100" as="geometry" />
        </mxCell>
        <mxCell id="DoBYynUEnmm3b60OkJsO-42" value="&amp;lt;&amp;lt;problem&amp;gt;&amp;gt;&lt;br&gt;Unreadable form" style="shape=note;size=15;align=left;spacingLeft=10;html=1;whiteSpace=wrap;" parent="1" vertex="1">
          <mxGeometry x="-317" y="357.5" width="160" height="60" as="geometry" />
        </mxCell>
        <mxCell id="DoBYynUEnmm3b60OkJsO-43" value="&amp;lt;&amp;lt;problem&amp;gt;&amp;gt;&lt;br&gt;Font type unreadable" style="shape=note;size=15;align=left;spacingLeft=10;html=1;whiteSpace=wrap;" parent="1" vertex="1">
          <mxGeometry x="-407" y="467.5" width="160" height="60" as="geometry" />
        </mxCell>
        <mxCell id="DoBYynUEnmm3b60OkJsO-44" value="&amp;lt;&amp;lt;problem&amp;gt;&amp;gt;&lt;br&gt;Font size too small" style="shape=note;size=15;align=left;spacingLeft=10;html=1;whiteSpace=wrap;" parent="1" vertex="1">
          <mxGeometry x="-217" y="467.5" width="160" height="60" as="geometry" />
        </mxCell>
        <mxCell id="DoBYynUEnmm3b60OkJsO-45" value="" style="rounded=0;html=1;labelBackgroundColor=none;endArrow=none;edgeStyle=elbowEdgeStyle;elbow=vertical;startArrow=sysMLPackCont;startSize=12;" parent="1" source="DoBYynUEnmm3b60OkJsO-42" target="DoBYynUEnmm3b60OkJsO-43" edge="1">
          <mxGeometry relative="1" as="geometry">
            <mxPoint x="-28.5" y="407.5" as="sourcePoint" />
            <mxPoint x="-337" y="457.5" as="targetPoint" />
          </mxGeometry>
        </mxCell>
        <mxCell id="DoBYynUEnmm3b60OkJsO-46" value="" style="rounded=0;html=1;labelBackgroundColor=none;endArrow=none;edgeStyle=elbowEdgeStyle;elbow=vertical;startArrow=sysMLPackCont;startSize=12;" parent="1" source="DoBYynUEnmm3b60OkJsO-42" target="DoBYynUEnmm3b60OkJsO-44" edge="1">
          <mxGeometry relative="1" as="geometry">
            <mxPoint x="-28.5" y="407.5" as="sourcePoint" />
            <mxPoint x="-28" y="457.5" as="targetPoint" />
          </mxGeometry>
        </mxCell>
        <mxCell id="VdbZ1WAWMFB-WAOaWvKl-2" style="rounded=0;orthogonalLoop=1;jettySize=auto;html=1;endArrow=none;endFill=0;strokeWidth=2;dashed=1;" edge="1" parent="1" source="DoBYynUEnmm3b60OkJsO-42" target="DoBYynUEnmm3b60OkJsO-2">
          <mxGeometry relative="1" as="geometry">
            <mxPoint x="-99" y="416" as="sourcePoint" />
            <mxPoint x="-99" y="345" as="targetPoint" />
          </mxGeometry>
        </mxCell>
        <mxCell id="VdbZ1WAWMFB-WAOaWvKl-4" value="" style="rounded=0;html=1;labelBackgroundColor=none;endArrow=none;edgeStyle=elbowEdgeStyle;elbow=vertical;startArrow=sysMLPackCont;startSize=12;exitX=0.5;exitY=1;exitDx=0;exitDy=0;entryX=0.5;entryY=0;entryDx=0;entryDy=0;" edge="1" parent="1" source="DoBYynUEnmm3b60OkJsO-1" target="DoBYynUEnmm3b60OkJsO-36">
          <mxGeometry relative="1" as="geometry">
            <mxPoint x="469" y="150" as="sourcePoint" />
            <mxPoint x="-327" y="200" as="targetPoint" />
          </mxGeometry>
        </mxCell>
        <mxCell id="VdbZ1WAWMFB-WAOaWvKl-5" value="" style="rounded=0;html=1;labelBackgroundColor=none;endArrow=none;edgeStyle=elbowEdgeStyle;elbow=vertical;startArrow=sysMLPackCont;startSize=12;exitX=0.5;exitY=1;exitDx=0;exitDy=0;entryX=0.5;entryY=0;entryDx=0;entryDy=0;" edge="1" parent="1" source="DoBYynUEnmm3b60OkJsO-1" target="DoBYynUEnmm3b60OkJsO-37">
          <mxGeometry relative="1" as="geometry">
            <mxPoint x="469" y="150" as="sourcePoint" />
            <mxPoint x="-70" y="200" as="targetPoint" />
          </mxGeometry>
        </mxCell>
        <mxCell id="VdbZ1WAWMFB-WAOaWvKl-6" value="&amp;lt;&amp;lt; &lt;b&gt;Block &lt;/b&gt;&amp;gt;&amp;gt;&lt;div&gt;&lt;br&gt;&lt;b&gt;Interface designer&lt;/b&gt;&lt;/div&gt;" style="shape=rect;html=1;whiteSpace=wrap;align=center;verticalAlign=top;fillColor=#FFF2CC;" vertex="1" parent="1">
          <mxGeometry x="6" y="407.5" width="120" height="60" as="geometry" />
        </mxCell>
        <mxCell id="VdbZ1WAWMFB-WAOaWvKl-7" value="&lt;font style=&quot;font-size: 12px;&quot;&gt;&lt;b&gt;&amp;lt;&amp;lt; Satisfy &amp;gt;&amp;gt;&lt;/b&gt;&lt;/font&gt;" style="edgeStyle=none;html=1;endArrow=open;endSize=12;dashed=1;verticalAlign=bottom;rounded=0;strokeWidth=2;" edge="1" parent="1" source="VdbZ1WAWMFB-WAOaWvKl-6" target="DoBYynUEnmm3b60OkJsO-37">
          <mxGeometry width="160" relative="1" as="geometry">
            <mxPoint x="75" y="321.9999999999999" as="sourcePoint" />
            <mxPoint x="235" y="321.9999999999999" as="targetPoint" />
          </mxGeometry>
        </mxCell>
        <mxCell id="VdbZ1WAWMFB-WAOaWvKl-8" value="&lt;font style=&quot;font-size: 12px;&quot;&gt;&lt;b&gt;&amp;lt;&amp;lt; Satisfy &amp;gt;&amp;gt;&lt;/b&gt;&lt;/font&gt;" style="edgeStyle=none;html=1;endArrow=open;endSize=12;dashed=1;verticalAlign=bottom;rounded=0;strokeWidth=2;" edge="1" parent="1" source="VdbZ1WAWMFB-WAOaWvKl-6" target="DoBYynUEnmm3b60OkJsO-36">
          <mxGeometry width="160" relative="1" as="geometry">
            <mxPoint x="-44.41" y="405" as="sourcePoint" />
            <mxPoint x="19.590000000000003" y="287" as="targetPoint" />
          </mxGeometry>
        </mxCell>
      </root>
    </mxGraphModel>
  </diagram>
</mxfile>
